PathFileType	4	(X/Y/Z)	C:\Users\dbl\Desktop\LZH\BX\bx_y_0_901.trc
DataRate	CameraRate	NumFrames	NumMarkers	Units	OrigDataRate	OrigDataStartFrame	OrigNumFrames
50.00	50.00	      8	43	mm	50.00	458	      1220
Frame#	Time	Top.Head			R.Acromium			L.Acromium			Sternum			R.ASIS			L.ASIS			V.Sacral			R.Thigh.Upper			R.Thigh.Front			R.Thigh.Rear			R.Knee.Lat			R.Knee.Med			R.Shank.Upper			R.Shank.Front			R.Shank.Rear			R.Ankle.Lat			R.Midfoot.Lat			R.Toe.Lat			R.Toe.Tip			R.Toe.Med			R.Ankle.Med			R.Midfoot.Sup			R.Heel			L.Thigh.Upper			L.Thigh.Front			L.Thigh.Rear			L.Knee.Lat			L.Knee.Med			L.Shank.Upper			L.Shank.Front			L.Shank.Rear			L.Ankle.Lat			L.Midfoot.Lat			L.Toe.Lat			L.Toe.Tip			L.Toe.Med			L.Ankle.Med			L.Midfoot.Sup			L.Heel			origin1 front left			origin2 front right			origin 3 back right			origin 4 back leftt			
		X1	Y1	Z1	X2	Y2	Z2	X3	Y3	Z3	X4	Y4	Z4	X5	Y5	Z5	X6	Y6	Z6	X7	Y7	Z7	X8	Y8	Z8	X9	Y9	Z9	X10	Y10	Z10	X11	Y11	Z11	X12	Y12	Z12	X13	Y13	Z13	X14	Y14	Z14	X15	Y15	Z15	X16	Y16	Z16	X17	Y17	Z17	X18	Y18	Z18	X19	Y19	Z19	X20	Y20	Z20	X21	Y21	Z21	X22	Y22	Z22	X23	Y23	Z23	X24	Y24	Z24	X25	Y25	Z25	X26	Y26	Z26	X27	Y27	Z27	X28	Y28	Z28	X29	Y29	Z29	X30	Y30	Z30	X31	Y31	Z31	X32	Y32	Z32	X33	Y33	Z33	X34	Y34	Z34	X35	Y35	Z35	X36	Y36	Z36	X37	Y37	Z37	X38	Y38	Z38	X39	Y39	Z39	X40	Y40	Z40	X41	Y41	Z41	X42	Y42	Z42	X43	Y43	Z43	

458	9.140	-496.37396	270.12683	1823.63599	-523.78229	67.52773	1516.47083	-513.42639	464.73846	1502.02295	-468.27124	270.18872	1362.99622	-564.65967	157.14958	1057.39648	-555.91785	389.09879	1056.22327	-756.07666	263.45209	1060.97412	-600.92041	100.75650	895.79626	-552.67249	158.69556	844.29956	-652.08319	99.83465	749.97174	-676.85547	128.12396	599.91669	-645.41138	233.06509	559.60846	-701.45013	129.57581	541.19604	-616.39795	171.50819	546.72571	-736.24017	131.90633	472.54929	-689.01019	145.74982	214.49789	-616.39209	78.16559	166.86084	-571.13281	51.80788	161.99306	-491.76505	93.37076	161.16394	-532.24164	144.15623	165.34569	-633.88715	218.65230	219.90001	-592.94086	189.18150	169.04437	-717.26941	214.07948	170.05969	-592.37152	443.77606	882.40930	-545.67084	383.42279	835.09021	-637.32690	445.09518	747.32440	-676.17981	421.39258	623.53058	-631.59961	319.43002	572.50519	-680.54803	418.81842	559.92334	-622.79407	378.72028	537.72760	-727.56781	420.79227	505.83322	-680.64807	415.00656	211.17435	-585.64185	469.14740	163.80586	-546.59985	480.31320	159.01314	-487.55011	427.92993	168.77737	-525.08203	387.44363	178.39563	-643.56519	327.66418	208.45862	-593.94299	348.19296	169.71175	-732.48254	343.14243	164.75989	-444.00549	448.67609	148.12782	-450.49335	75.57680	143.81354	-806.26453	82.64291	142.65181	-799.28394	457.47964	145.10204	
459	9.160	-484.74658	269.05426	1819.89124	-516.92938	66.42207	1513.29785	-507.19608	463.40247	1498.91943	-465.34341	269.29276	1358.53821	-568.36041	156.76750	1056.95642	-559.66779	388.04938	1055.67969	-759.53894	263.25345	1061.81299	-604.50342	100.28444	895.95392	-556.14185	158.37491	844.37366	-655.20978	99.55699	749.84949	-679.19507	127.85988	599.74164	-647.42505	232.93643	559.63702	-703.42529	129.43658	541.01178	-618.39441	171.37152	546.80432	-737.79572	131.81580	472.16769	-689.19489	145.55466	214.40445	-616.51257	78.08127	166.69110	-571.14880	51.74616	161.96951	-491.75125	93.38933	161.11890	-532.23419	144.19006	165.33868	-634.16425	218.65486	219.95906	-593.01398	189.15463	169.05463	-717.28601	214.03020	170.04813	-595.88782	443.55536	882.47620	-548.93726	383.13623	835.30396	-640.14136	445.19342	747.32312	-678.43756	421.31635	623.39502	-633.63892	319.37900	572.43817	-682.40588	418.81799	559.75275	-624.52167	378.72754	537.94806	-729.19666	420.76447	505.40179	-680.94537	415.19211	211.61140	-585.65430	469.16141	163.81470	-546.60797	480.32932	158.98203	-487.57465	427.89853	168.71886	-525.10736	387.46780	178.46729	-643.79785	327.82758	208.40649	-593.92377	348.18158	169.77704	-732.46210	343.23868	164.81052	-443.98047	448.64340	148.14294	-450.50116	75.60055	143.79457	-806.12689	82.50931	142.71214	-799.28333	457.46777	145.16664	
460	9.180	-472.69769	267.88693	1815.65918	-509.95404	65.32776	1509.70520	-500.86154	462.14789	1495.45313	-462.62305	268.49313	1353.69958	-572.11047	156.21202	1056.48657	-563.39709	387.04504	1055.24744	-763.15204	262.98004	1062.64893	-608.24054	99.74055	896.06744	-559.68634	157.82794	844.33765	-658.52570	99.28973	749.68848	-681.67047	127.57516	599.58752	-649.48779	232.78279	559.72998	-705.46814	129.26378	540.79700	-620.47229	171.17873	546.92249	-739.39978	131.74355	471.73511	-689.37543	145.42741	214.26445	-616.60168	78.01051	166.54355	-571.18597	51.74770	161.87552	-491.74521	93.39590	161.05965	-532.22528	144.22148	165.34471	-634.43402	218.60953	220.02359	-593.06470	189.13547	169.10060	-717.31372	213.96413	170.00806	-599.46558	443.20795	882.50958	-552.24255	382.76758	835.52155	-643.09357	445.18811	747.27344	-680.80402	421.18094	623.20074	-635.73938	319.29028	572.35547	-684.28857	418.77048	559.61499	-626.34253	378.70645	538.11060	-730.87048	420.71735	504.96127	-681.27686	415.39441	212.17799	-585.67603	469.19504	163.82353	-546.61316	480.35806	158.95323	-487.58414	427.85379	168.67030	-525.12360	387.47952	178.47478	-643.98492	327.95349	208.42104	-593.95911	348.23672	169.80563	-732.44385	343.36472	164.84468	-443.94485	448.60931	148.16359	-450.47064	75.66150	143.78123	-806.04120	82.39929	142.76506	-799.26184	457.50870	145.17430	
461	9.200	-460.14526	266.71304	1810.89136	-502.90155	64.28718	1505.70532	-494.42828	460.99243	1491.65881	-460.01978	267.69278	1348.63513	-575.84680	155.55389	1055.98511	-567.01923	386.20688	1054.99817	-766.86713	262.62012	1063.52100	-612.20099	99.22478	896.01520	-563.35583	157.10320	844.22162	-662.07758	99.00404	749.46863	-684.26953	127.27150	599.42371	-651.63531	232.57491	559.81213	-707.55688	129.05017	540.55273	-622.63678	170.90874	547.07684	-741.06427	131.64330	471.25320	-689.55585	145.37117	214.11299	-616.64984	77.93750	166.43463	-571.25555	51.76368	161.72481	-491.76544	93.37356	161.03027	-532.22614	144.23878	165.36931	-634.70862	218.49487	220.12088	-593.12390	189.07985	169.18030	-717.35986	213.88708	169.95143	-603.08636	442.75253	882.54834	-555.64343	382.40619	835.64539	-646.24426	445.04077	747.15503	-683.24146	421.08401	622.98956	-637.83160	319.18753	572.27527	-686.19531	418.74054	559.52100	-628.25293	378.67322	538.20972	-732.57416	420.68820	504.57227	-681.56604	415.56543	212.65346	-585.71802	469.25421	163.80669	-546.60638	480.39917	158.94470	-487.60120	427.79214	168.63422	-525.18774	387.50327	178.42348	-644.14874	328.03821	208.48410	-594.10278	348.43839	169.75034	-732.45050	343.49094	164.79434	-443.93845	448.59430	148.16675	-450.41016	75.73831	143.76927	-806.04901	82.35858	142.79025	-799.23138	457.59033	145.11325	
462	9.220	-447.11008	265.54608	1805.53589	-495.81403	63.26737	1501.31055	-487.88232	459.89313	1487.52966	-457.41150	266.76569	1343.50598	-579.59595	154.93536	1055.39844	-570.60138	385.47107	1054.84009	-770.58484	262.21338	1064.39807	-616.45221	98.84470	895.69983	-567.19879	156.32764	844.03625	-665.79669	98.63474	749.20850	-686.92963	126.94229	599.23749	-653.88361	232.31480	559.81494	-709.69958	128.83702	540.26935	-624.87646	170.57156	547.23090	-742.78839	131.48265	470.74066	-689.73956	145.33321	213.98816	-616.68549	77.85229	166.35286	-571.36322	51.71983	161.57129	-491.82629	93.32298	161.05376	-532.25049	144.25345	165.41859	-634.99017	218.27684	220.27907	-593.18915	188.98123	169.31017	-717.42242	213.78831	169.89552	-606.76611	442.26880	882.62054	-559.16357	382.09784	835.63312	-649.53882	444.80362	747.00061	-685.68207	421.03882	622.77411	-639.92395	319.10263	572.19226	-688.14380	418.76202	559.48224	-630.22144	378.63052	538.26819	-734.31586	420.69986	504.24307	-681.80096	415.66364	212.90891	-585.80408	469.34052	163.75052	-546.59906	480.45010	158.95526	-487.65417	427.71130	168.61189	-525.29315	387.54480	178.34372	-644.32404	328.08920	208.55743	-594.37354	348.83395	169.55098	-732.47357	343.58011	164.65819	-443.99323	448.60031	148.13107	-450.34543	75.79729	143.76328	-806.12360	82.39333	142.77580	-799.21637	457.66946	145.00111	
463	9.240	-433.70532	264.35321	1799.55603	-488.73895	62.21606	1496.52246	-481.23511	458.78699	1483.00171	-454.70477	265.63406	1338.40271	-583.46368	154.51004	1054.65833	-574.24347	384.71927	1054.64063	-774.24023	261.77841	1065.20837	-620.97229	98.66369	895.12476	-571.21338	155.64142	843.77545	-669.52014	98.16782	748.96564	-689.57892	126.56927	599.05786	-656.21674	232.00813	559.72400	-711.90332	128.64075	539.95557	-627.14746	170.21355	547.37390	-744.54309	131.22577	470.23300	-689.94098	145.23547	213.88937	-616.74274	77.75317	166.26764	-571.49066	51.59589	161.44704	-491.91180	93.27030	161.11726	-532.29614	144.26768	165.48915	-635.28760	217.93776	220.51476	-593.23804	188.85657	169.51526	-717.48999	213.65450	169.85020	-610.52252	441.80920	882.70404	-562.77362	381.80255	835.53699	-652.87817	444.59641	746.84460	-688.08014	420.98172	622.54004	-642.07068	319.01794	572.11481	-690.16815	418.79425	559.48785	-632.19678	378.56534	538.32281	-736.09125	420.71619	503.92877	-682.02289	415.67694	212.95618	-585.92188	469.44016	163.66570	-546.60748	480.49869	158.97575	-487.75266	427.62402	168.59290	-525.40942	387.60172	178.26840	-644.54041	328.12308	208.62218	-594.72174	349.34766	169.23032	-732.49115	343.61691	164.48157	-444.08310	448.60977	148.06003	-450.30188	75.83330	143.76372	-806.20398	82.47084	142.72684	-799.23224	457.68466	144.91933	
464	9.260	-420.07245	263.13702	1792.92981	-481.70013	61.11700	1491.32080	-474.52948	457.63361	1477.98950	-451.91357	264.28223	1333.22473	-587.49542	154.35687	1053.76062	-577.98065	383.94223	1054.32678	-777.83978	261.28741	1065.93225	-625.53168	98.61297	894.46698	-575.25830	155.12256	843.51093	-673.08099	97.65220	748.77930	-692.15796	126.15030	598.90320	-658.57062	231.64360	559.60144	-714.12494	128.40796	539.65033	-629.38263	169.87251	547.52679	-746.27484	130.85252	469.76495	-690.17987	145.00888	213.80206	-616.83069	77.64186	166.15819	-571.59595	51.45449	161.34033	-491.98981	93.24300	161.18538	-532.34161	144.26877	165.56133	-635.64850	217.50758	220.77753	-593.23920	188.71548	169.80034	-717.55194	213.49283	169.82959	-614.34906	441.37399	882.72205	-566.42194	381.45059	835.43311	-656.19727	444.48300	746.66827	-690.44690	420.87399	622.29169	-644.27222	318.87769	572.06757	-692.26074	418.75958	559.48688	-634.14557	378.47336	538.40314	-737.87860	420.69342	503.58563	-682.24823	415.63846	212.84718	-586.01471	469.51868	163.58374	-546.63013	480.52377	159.00044	-487.88013	427.55930	168.56760	-525.52490	387.66135	178.21783	-644.78650	328.16095	208.69550	-595.05072	349.80750	168.91986	-732.48578	343.62830	164.32233	-444.15567	448.61499	147.98015	-450.28088	75.85540	143.77312	-806.24945	82.53912	142.67769	-799.27521	457.60883	144.93883	
465	9.280	-406.32916	261.92413	1785.67688	-474.68814	59.98028	1485.66821	-467.80045	456.42838	1472.45068	-449.13785	262.74448	1327.72632	-591.56720	154.40062	1052.79456	-581.78015	383.23355	1053.88379	-781.38300	260.72311	1066.61597	-629.79413	98.50878	893.98315	-579.04608	154.72246	843.39771	-676.41815	97.13183	748.63702	-694.64514	125.71764	598.74353	-660.86188	231.22314	559.53180	-716.29785	128.06822	539.37457	-631.54858	169.55757	547.68115	-747.94116	130.40559	469.35361	-690.46301	144.64816	213.72536	-616.93115	77.52757	166.03755	-571.64026	51.37278	161.22855	-492.04797	93.25069	161.22726	-532.36481	144.25203	165.61711	-636.12238	217.07755	220.94835	-593.17096	188.55873	170.13777	-717.60992	213.33119	169.85268	-618.23773	440.95331	882.61658	-570.06909	381.02625	835.34058	-659.48834	444.43076	746.45074	-692.82556	420.74731	622.05566	-646.47864	318.66922	572.05182	-694.37549	418.62570	559.41180	-636.06427	378.34857	538.51416	-739.66016	420.65689	503.20776	-682.46155	415.61798	212.65451	-586.03754	469.55264	163.53481	-546.65399	480.50629	159.01598	-488.00772	427.53485	168.53790	-525.62830	387.70529	178.19760	-645.00739	328.22900	208.81659	-595.29462	350.09589	168.74304	-732.44623	343.67526	164.22949	-444.18762	448.62131	147.91718	-450.26099	75.85696	143.80319	-806.25763	82.56310	142.66426	-799.32837	457.48825	145.02638	
